<svg width="520" height="165" xmlns="http://www.w3.org/2000/svg">

 <g>
  <title>Layer 1</title>
  <g>
   <g stroke-width="0" id="svg_4"/>
   <g stroke-linejoin="round" stroke-linecap="round" id="svg_3"/>
   <g id="svg_2">
    <path fill="#9E5A23" d="m471.862,1.552l-423.724,0c24.717,0 44.138,35.31 44.138,79.448s-19.421,79.448 -44.138,79.448l423.724,0c24.717,0 44.138,-35.31 44.138,-79.448s-19.421,-79.448 -44.138,-79.448"/>
    <g>
     <path fill="#844414" d="m162.897,45.69l-77.683,0c-5.297,0 -8.828,-3.531 -8.828,-8.828c0,-5.297 3.531,-8.828 8.828,-8.828l77.683,0c5.297,0 8.828,3.531 8.828,8.828c-0.001,5.297 -3.532,8.828 -8.828,8.828"/>
     <path fill="#844414" d="m339.448,45.69l-141.241,0c-5.297,0 -8.828,-3.531 -8.828,-8.828c0,-5.297 3.531,-8.828 8.828,-8.828l141.241,0c5.297,0 8.828,3.531 8.828,8.828c0,5.297 -3.531,8.828 -8.828,8.828"/>
     <path fill="#844414" d="m498.345,45.69l-123.586,0c-5.297,0 -8.828,-3.531 -8.828,-8.828c0,-5.297 3.531,-8.828 8.828,-8.828l123.586,0c5.297,0 8.828,3.531 8.828,8.828c-0.001,5.297 -3.532,8.828 -8.828,8.828"/>
     <path fill="#844414" d="m295.31,89.828l-26.483,0c-5.297,0 -8.828,-3.531 -8.828,-8.828c0,-5.297 3.531,-8.828 8.828,-8.828l26.483,0c5.297,0 8.828,3.531 8.828,8.828c0,5.297 -3.531,8.828 -8.828,8.828"/>
     <path fill="#844414" d="m215.862,89.828l-88.276,0c-5.297,0 -8.828,-3.531 -8.828,-8.828c0,-5.297 3.531,-8.828 8.828,-8.828l88.276,0c5.297,0 8.828,3.531 8.828,8.828c0,5.297 -3.531,8.828 -8.828,8.828"/>
     <path fill="#844414" d="m383.586,89.828l-52.966,0c-5.297,0 -8.828,-3.531 -8.828,-8.828c0,-5.297 3.531,-8.828 8.828,-8.828l52.966,0c5.297,0 8.828,3.531 8.828,8.828c0,5.297 -3.531,8.828 -8.828,8.828"/>
     <path fill="#844414" d="m507.172,89.828l-79.448,0c-5.297,0 -8.828,-3.531 -8.828,-8.828c0,-5.297 3.531,-8.828 8.828,-8.828l79.448,0c5.297,0 8.828,3.531 8.828,8.828c0,5.297 -3.531,8.828 -8.828,8.828"/>
     <path fill="#844414" d="m171.724,133.966l-86.51,0c-5.297,0 -8.828,-3.531 -8.828,-8.828c0,-5.297 3.531,-8.828 8.828,-8.828l86.51,0c5.297,0 8.828,3.531 8.828,8.828c0,5.296 -3.531,8.828 -8.828,8.828"/>
     <path fill="#844414" d="m463.034,133.966l-70.621,0c-5.297,0 -8.828,-3.531 -8.828,-8.828c0,-5.297 3.531,-8.828 8.828,-8.828l70.621,0c5.297,0 8.828,3.531 8.828,8.828c0,5.296 -3.531,8.828 -8.828,8.828"/>
     <path fill="#844414" d="m330.621,133.966l-105.931,0c-5.297,0 -8.828,-3.531 -8.828,-8.828c0,-5.297 3.531,-8.828 8.828,-8.828l105.931,0c5.297,0 8.828,3.531 8.828,8.828c-0.001,5.296 -3.532,8.828 -8.828,8.828"/>
    </g>
    <path fill="#f8c39b" d="m92.276,81c0,44.138 -19.421,79.448 -44.138,79.448s-44.138,-35.31 -44.138,-79.448s19.421,-79.448 44.138,-79.448s44.138,35.31 44.138,79.448"/>
    <path fill="#844414" d="m48.138,129.552c-2.648,0 -6.179,-1.766 -7.945,-4.414c-2.648,-5.297 -9.71,-20.303 -9.71,-44.138s7.062,-38.841 9.71,-44.138c2.648,-4.414 7.945,-5.297 12.359,-3.531c4.414,2.648 5.297,7.945 3.531,12.359c-2.648,4.414 -7.945,15.89 -7.945,35.31s5.297,30.897 7.945,35.31c2.648,4.414 0.883,9.71 -3.531,12.359c-1.766,0 -2.649,0.883 -4.414,0.883"/>
   </g>
  </g>
 </g>
</svg>